<?xml version="1.0" encoding="UTF-8"?><svg id="Layer_1" xmlns="http://www.w3.org/2000/svg" viewBox="0 0 545 338"><defs><style>.cls-1{fill:#6e3470;}.cls-2{fill:#ced362;}.cls-3{fill:#a5988b;}.cls-4{fill:#5b534d;}.cls-5{fill:#8e7d72;}</style></defs><g><path class="cls-4" d="M219.09,324.99c-18.57,.1-37.15-1.24-55.43-4.22-15.45-2.51-26.47-4.75-40.89-10.49-17.43-6.97-41.79-20.31-38.92-40.85,0-.04,.02-.08,.03-.12-.07,2.21,3.68,3.14,4.25,.77,.03-.11,.05-.23,.07-.33-1.17,8.98,4.1,16.79,11.25,22.82,8.83,7.45,15.73,11.01,26.86,14.89,14.67,5.12,30.12,8.42,45.64,10.54,37.61,5.13,76.49,3.78,113.61-3.67,.47-.09,.91-.06,1.25,.09-.53,.12-1.04,.23-1.57,.33-2.26,.47-1.97,3.19-.24,3.8-21.65,4.22-43.79,6.34-65.92,6.45Z"/><path class="cls-3" d="M285.57,314.32c-37.12,7.45-76,8.8-113.61,3.67-15.52-2.11-30.97-5.41-45.64-10.54-11.14-3.88-18.03-7.44-26.86-14.89-7.15-6.03-12.42-13.84-11.25-22.82,1.11-4.9,.86-10,.34-14.95-.72-6.53-5.89-14.29-8.25-20.79-.16-.43-.31-.86-.44-1.28-4.46-14.35-11.52-29.11-23.25-39.79-4.71-4.28-10.29-7.82-16.54-9.82,6.23-2.15,12.11-5.08,17.35-8.86,6.64-4.79,11.35-10.93,14.94-17.87,6.26-12.12,10.34-25.79,11.59-39.17,.14-1.49,.58-5.84-.74-7.8,1.14-26.2,10.33-55.22,35.37-70.55,13.62-8.33,30.75-11.03,46.83-11.93,20.41-1.14,40.87,1.17,60.94,4.41,36.35,5.88,72.07,14.97,106.57,26.97,34.58,12.04,67.92,27.01,99.5,44.63,31.69,17.67,61.62,38,89.19,60.72,2.59,2.14,5.16,4.29,7.71,6.48-27.39,23.62-55.04,47.06-84.51,68.51-30.31,22.06-62.68,42.07-97.97,56.88-19.27,8.1-39.35,14.53-60.01,18.87-.35-.14-.78-.18-1.25-.09Zm-128.95-16.06c28.14,5.73,57.22,8.03,86.02,7.44,28.84-.6,58.13-4.01,85.48-12.67,12.13-3.84,23.94-8.72,34.66-15.24,7.3-4.45,14.24-9.41,21.43-14.04,8.13-5.21,16.33-10.33,24.54-15.45,32.39-20.15,65.06-40.35,92.95-65.72,3.51-3.19,6.93-6.46,10.26-9.79,.94-.94,.68-2.13-.05-2.84,.11-.66-.14-1.39-.93-1.88-30.48-19.04-61.07-37.98-92.68-55.44-31.14-17.18-63.32-32.93-97.02-45.51-33.5-12.49-68.52-21.67-104.47-25.7-8.91-.99-17.79-1.68-26.79-1.36-8.92,.32-17.79,1.35-26.66,2.24-6.9,.69-14.17,.66-20.84,2.57-4.73,1.35-9.15,3.46-13.18,6.08-22.89,14.88-33.74,41.81-37.93,66.2-.7,4.07-1.21,8.16-1.58,12.28-.02,.27,0,.49,.07,.7,1.25,9.67-1.57,19.63-5.52,28.53-4.07,9.19-9.81,18.01-17.11,25.39-.88,.9-.99,2.5,.35,3.16,.68,.34,1.12,.62,1.52,.92,.13,.1,.26,.19,.38,.3,.78,.68,1.5,1.43,2.18,2.21,1.55,1.79,2.98,4.1,4.21,6.27,3.27,5.79,5.73,11.95,7.9,18.14,4.84,13.81,12.8,29.63,14.52,44.05,.35,3.05,.6,6.13,.62,9.2,0,1.2-.03,2.43-.15,3.63-.05,.56-.11,1.09-.2,1.64,0,0,0,.05-.07,.35-.05,.24-.12,.46-.18,.7-.16,.58-.05,1.09,.23,1.5,.03,.05,.07,.12,.11,.18,.14,.22,.34,.44,.59,.62,8,5.6,17.18,9.69,26.5,13.1,11.38,4.16,18.87,5.81,30.83,8.24Z"/><path class="cls-4" d="M286.29,318.63c-.49,.09-.92,.06-1.28-.09,.53-.11,1.07-.21,1.6-.32,2.28-.46,1.96-3.2,.21-3.81,20.66-4.34,40.75-10.76,60.01-18.87,35.29-14.81,67.66-34.82,97.97-56.88,29.47-21.45,57.12-44.89,84.51-68.51,.8,.66,1.58,1.34,2.36,2.01,.33,.29,.7,.46,1.06,.54-15.06,12.98-30.18,25.91-45.65,38.49-29.51,23.99-60.34,46.87-93.92,65.97-33,18.78-68.83,33.66-106.87,41.46Z"/><path class="cls-4" d="M286.61,318.22c-.53,.11-1.07,.21-1.6,.32-1.73-.61-2.02-3.32,.24-3.8,.53-.11,1.04-.21,1.57-.33,1.75,.61,2.07,3.35-.21,3.81Z"/><path class="cls-4" d="M242.64,305.7c-28.81,.6-57.89-1.71-86.02-7.44-11.96-2.43-19.46-4.08-30.83-8.24-9.31-3.41-18.5-7.51-26.5-13.1-.26-.18-.45-.4-.59-.62,.97,1.19,3.36,1.35,3.86-.5,.13-.46,.23-.94,.34-1.42,1.3,.88,2.62,1.71,3.98,2.5,8.79,5.18,14.16,7.51,24.02,10.65,11.88,3.76,24.15,6.55,36.51,8.69,28.28,4.9,57.38,6.49,86.11,5.12,27.96-1.34,56.46-5.51,82.48-15.26,5.86-2.2,11.59-4.69,17.09-7.55,5.97-3.08,11.44-6.72,16.97-10.41,15.84-10.53,32.1-20.5,48.27-30.6,31.83-19.87,63.26-40.6,89.53-66.56,.27,.17,.53,.33,.8,.5,1.55,.96,3.07-.2,3.25-1.51,.74,.71,.99,1.91,.05,2.84-3.34,3.33-6.76,6.6-10.26,9.79-27.89,25.37-60.56,45.57-92.95,65.72-8.21,5.12-16.41,10.23-24.54,15.45-7.19,4.62-14.13,9.59-21.43,14.04-10.71,6.52-22.53,11.4-34.66,15.24-27.35,8.66-56.64,12.07-85.48,12.67Z"/><path class="cls-5" d="M253.52,301.34c-28.73,1.37-57.83-.21-86.11-5.12-12.36-2.14-24.63-4.92-36.51-8.69-9.86-3.14-15.23-5.47-24.02-10.65-1.36-.78-2.68-1.62-3.98-2.5,.84-4.26,.46-8.78,.04-13.04-.68-7.04-1.94-14.04-3.5-20.97-3.23-14.44-11.79-30.63-18.88-43.92-2.05-3.86-4.63-8.51-8.5-11.33,6.96-7.5,12.47-16.16,16.52-25.27,4.22-9.54,6.88-19.98,5.64-30.29,1.32-14.98,4.82-29.87,11.42-43.68,4.98-10.46,11.94-20.49,21.33-28.11,3.76-3.05,7.94-5.67,12.51-7.58,4.86-2,9.75-2.59,15-3.05,17.86-1.55,35.53-4.15,53.48-2.57,35.2,3.1,69.63,11.38,102.57,22.97,33.46,11.76,65.39,26.86,96.24,43.48,31.11,16.75,61.15,35.07,90.99,53.65,3.36,2.11,6.74,4.2,10.11,6.31-26.27,25.96-57.7,46.69-89.53,66.56-16.17,10.09-32.43,20.07-48.27,30.6-5.54,3.68-11,7.32-16.97,10.41-5.5,2.85-11.23,5.34-17.09,7.55-26.02,9.75-54.52,13.92-82.48,15.26Z"/><path class="cls-4" d="M102.56,275.81c-.5,1.84-2.89,1.68-3.86,.5-.04-.05-.08-.12-.11-.18-.82-1.66,1.12-3.93,3.04-2.61,.41,.29,.84,.58,1.27,.88-.1,.48-.21,.96-.34,1.42Z"/><path class="cls-4" d="M98.59,276.13c-.28-.41-.39-.92-.23-1.5,.07-.24,.13-.46,.18-.7,.07-.29,.07-.35,.07-.35,.09-.54,.15-1.08,.2-1.64,.11-1.2,.15-2.43,.15-3.63-.02-3.07-.27-6.15-.62-9.2-1.72-14.42-9.68-30.24-14.52-44.05-2.17-6.18-4.62-12.35-7.9-18.14-1.23-2.17-2.66-4.48-4.21-6.27-.68-.78-1.4-1.53-2.18-2.21-.13-.11-.26-.21-.38-.3l1.15-1.17c.6-.61,1.19-1.22,1.77-1.85,3.87,2.83,6.45,7.48,8.5,11.33,7.09,13.29,15.65,29.48,18.88,43.92,1.56,6.93,2.82,13.93,3.5,20.97,.42,4.26,.8,8.78-.04,13.04-.43-.29-.86-.58-1.27-.88-1.91-1.32-3.86,.95-3.04,2.61Z"/><path class="cls-4" d="M88.14,270.08c-.57,2.37-4.33,1.44-4.25-.77h0c.49-2.42,4.7-2.26,4.34,.24,0,.07-.02,.13-.02,.2-.02,.11-.04,.23-.07,.33Z"/><path class="cls-4" d="M88.21,269.75c0-.07,.02-.13,.02-.2,.36-2.5-3.86-2.65-4.34-.25,0-.13,.02-.25,.06-.4,.27-1.09,.36-1.73,.48-3.04,.12-1.3,.17-2.62,.17-3.93,0-3.06-.25-6.12-.67-9.15-.82-5.87-2.87-12.01-5.54-18.07l1.91-.7c2.36,6.5,7.53,14.26,8.25,20.79,.53,4.95,.77,10.06-.34,14.95Z"/><path class="cls-4" d="M80.29,234.01l-1.91,.7c-3.67-8.37-8.5-16.59-12.81-23.78-6.9-11.53-17.26-22.76-32.09-25.29-.35-.06-.62-.16-.84-.32,2.52-.63,5-1.35,7.42-2.19,6.25,2,11.83,5.54,16.54,9.82,11.73,10.67,18.79,25.44,23.25,39.79,.13,.42,.28,.85,.44,1.28Z"/><path class="cls-4" d="M70.29,186.98l-1.15,1.17c-.4-.3-.84-.58-1.52-.92-1.34-.66-1.23-2.26-.35-3.16,7.29-7.38,13.04-16.2,17.11-25.39,3.95-8.9,6.77-18.86,5.52-28.53,.55,1.87,4.11,1.73,4.31-.58,1.24,10.31-1.42,20.76-5.64,30.29-4.05,9.11-9.56,17.77-16.52,25.27-.66-.5-1.37-.93-2.12-1.3,.11,1.04,.22,2.1,.35,3.15Z"/><path class="cls-4" d="M70.29,186.98c-.13-1.04-.24-2.1-.35-3.15,.75,.37,1.46,.8,2.12,1.3-.58,.63-1.16,1.24-1.77,1.85Z"/><path class="cls-4" d="M31.64,185.55c-2.74,.63-3.77-3.25-1.04-3.89,1-.23,1.99-.48,2.98-.76l.29,.9c-1.81,.32-2.6,2.61-1.22,3.5-.34,.08-.66,.16-1,.24Z"/><path class="cls-4" d="M32.64,185.31c-1.37-.89-.58-3.18,1.22-3.5,.28-.06,.59-.06,.91,0,1.82,.3,3.58,.75,5.29,1.32-2.42,.84-4.9,1.56-7.42,2.19Z"/><path class="cls-4" d="M79.69,112.21s0-.03-.01-.04c0-.03,0-.04-.01-.07,.26,.17,.56,.27,.87,.32,.01,.01,.03,.01,.06,.01,.3,.06,.64,.07,.98-.01-.1,.02-.18,.04-.26,.02,.95-.12,1.81-.74,1.84-1.86,.01-.39,.03-.77,.05-1.16,1.32,1.96,.88,6.31,.74,7.8-1.25,13.38-5.33,27.04-11.59,39.17-3.58,6.94-8.3,13.08-14.94,17.87-5.23,3.78-11.11,6.71-17.35,8.86-1.71-.57-3.47-1.01-5.29-1.32-.32-.06-.63-.06-.91,0l-.29-.9c8.18-2.22,16-5.72,22.49-10.8,11.2-8.79,16.39-22.51,19.95-35.2,1.53-5.42,2.76-10.94,3.41-16.5,.2-1.78,.36-3.58,.31-5.37-.01-.13-.06-.72-.06-.83h.01Z"/><path class="cls-4" d="M535.47,170.35c.34,1.32-1.21,2.64-2.73,2.36,.92-.79,1.83-1.57,2.73-2.36Z"/><path class="cls-4" d="M535.47,170.35c-.9,.79-1.82,1.57-2.73,2.36-.36-.08-.74-.25-1.06-.54-.78-.68-1.56-1.35-2.36-2.01,1.07-.92,2.13-1.82,3.19-2.74,.78,.66,1.58,1.34,2.36,2.01,.34,.29,.54,.6,.61,.92Z"/><path class="cls-4" d="M511.91,169.96c-.17,1.32-1.7,2.48-3.25,1.51-.27-.17-.53-.33-.8-.5,.38-.35,.74-.71,1.1-1.08,.97-.96,2.21-.7,2.95,.07Z"/><path class="cls-4" d="M508.96,169.9c-.36,.36-.72,.73-1.1,1.08-3.36-2.11-6.74-4.2-10.11-6.31-29.84-18.57-59.88-36.89-90.99-53.65-30.85-16.62-62.77-31.73-96.24-43.48-32.94-11.58-67.36-19.87-102.57-22.97-17.96-1.58-35.63,1.03-53.48,2.57-5.24,.46-10.14,1.05-15,3.05-4.58,1.91-8.75,4.53-12.51,7.58-9.39,7.62-16.35,17.64-21.33,28.11-6.6,13.81-10.1,28.7-11.42,43.68,0-.17-.03-.36-.06-.54-.34-2.55-4.59-1.58-4.27,.95,.01,.05,.01,.11,0,.16-.07-.2-.09-.43-.07-.7,.37-4.11,.88-8.21,1.58-12.28,4.19-24.39,15.04-51.33,37.93-66.2,4.03-2.61,8.45-4.72,13.18-6.08,6.66-1.92,13.94-1.88,20.84-2.57,8.87-.89,17.74-1.92,26.66-2.24,8.99-.32,17.88,.38,26.79,1.36,35.95,4.03,70.97,13.21,104.47,25.7,33.7,12.58,65.88,28.33,97.02,45.51,31.61,17.46,62.2,36.4,92.68,55.44,.79,.49,1.04,1.22,.93,1.88-.73-.77-1.98-1.03-2.95-.07Z"/><path class="cls-4" d="M536.31,169.62l-.84,.72c-.08-.32-.27-.63-.61-.92-.78-.68-1.58-1.35-2.36-2.01l.81-.7c2.06-1.77,5.06,1.14,3,2.91Z"/><path class="cls-4" d="M532.5,167.41c-1.05,.92-2.12,1.82-3.19,2.74-2.54-2.19-5.12-4.34-7.71-6.48-27.57-22.73-57.5-43.05-89.19-60.72-31.58-17.62-64.92-32.59-99.5-44.63-34.51-12-70.22-21.09-106.57-26.97-20.07-3.24-40.53-5.55-60.94-4.41-16.08,.9-33.21,3.6-46.83,11.93-25.03,15.33-34.23,44.35-35.37,70.55-.63-.94-1.65-1.34-3.29-.66-.65,.26-.99,.69-1.1,1.16,.14-4.03,.45-8.08,.99-12.08,3.43-25.95,16.12-53.13,42.7-65.73,6.85-3.26,14.34-5.21,21.88-6.64,9.96-1.91,20.16-2.74,30.33-2.81,20.56-.15,41.03,2.72,61.16,6.27,37.14,6.52,73.54,16.38,108.62,29.26,35.16,12.91,69,28.81,100.93,47.45,31.02,18.11,60.19,38.81,87.1,61.78Z"/><path class="cls-4" d="M94.22,129.57c-.21,2.3-3.76,2.45-4.31,.58,0-.05,0-.11,0-.16-.33-2.53,3.93-3.5,4.27-.95,.02,.17,.05,.36,.06,.54Z"/><path class="cls-4" d="M81.57,112.42c-.34,.08-.67,.08-.98,.01,.15,.02,.28,.02,.42,.01,.09,.02,.19,.02,.29,0,.09,.02,.16,0,.26-.02Z"/><path class="cls-4" d="M81.3,112.44c-.1,.02-.21,.02-.29,0,.1,.02,.19,0,.29,0Z"/><path class="cls-4" d="M81.01,112.45c-.15,0-.28,0-.42-.01-.03,0-.04,0-.06-.01-.33-.08-.62-.22-.88-.41h0c-.01-.11-.04-.19-.05-.28v-.03c.37,.3,.81,.69,1.41,.75Z"/><path class="cls-4" d="M79.61,111.7v.03c.01,.09,.04,.17,.05,.27-.46-.33-.76-.82-.88-1.33-.01-.07-.02-.13,0-.2,0-.19,.01-.36,.03-.55,.12-.46,.45-.9,1.1-1.16,1.64-.68,2.67-.27,3.29,.66-.03,.39-.04,.77-.05,1.16-.04,1.12-.89,1.74-1.84,1.86-.1,.01-.19,.02-.29,0-.6-.06-1.04-.44-1.41-.75Z"/><path class="cls-4" d="M80.53,112.42c-.31-.05-.61-.15-.87-.32,0-.03,0-.07-.01-.09,.26,.19,.54,.34,.88,.41Z"/><path class="cls-4" d="M79.65,112.01s.01,.07,.01,.09c-.49-.28-.85-.77-.89-1.44,.11,.51,.42,1,.88,1.33h0Z"/><path class="cls-4" d="M78.77,110.46c-.04-.19-.02-.36,.03-.55-.02,.19-.03,.36-.03,.55Z"/></g><g><path class="cls-1" d="M477.86,88.98c-4.11-9.19-17.07,3.46-21.64,8.22,.4,.14,.78,.25,1.11,.33,1.83,.39,1.9,2.67,.89,3.8,.11-.08,.2-.17,.3-.27,2.96-3.13,6.19-5.88,9.73-8.18,2.12-1.36,6.94-4.55,5.76,.68-1.39,6.13-7.7,9.38-9.85,15.23-.37,.99-.09,1.91,.45,2.55,.62-1.37,2.48-1.9,3.35-.77,2.68-6.41,13.62-13.25,9.9-21.58Z"/><path class="cls-2" d="M474,93.56c1.19-5.23-3.64-2.04-5.76-.68-3.54,2.29-6.76,5.04-9.73,8.18-.09,.09-.19,.19-.3,.27-.01,0-.01,.02-.03,.02-.43,.48-1.05,.74-1.82,.57-3.69-.8-6.81-2.71-10.19-4.41-1.92-.96-4.53-2.43-6.7-2.17-3.35,.39-3.41,3.25-1.62,5.88,2.94,4.33,10.03,5.51,11.13,11.42,.2,1.06-.23,1.92-.89,2.42,.02,.26-.01,.53-.1,.83-.83,2.89-2.3,5.22-4.04,7.55-1.18,1.59-2.51,3.12-3.45,4.88-.92,1.78-2.56,7.05,1.24,5.98,2.94-.81,5.9-5.03,7.88-7.32,2.3-2.66,4.49-5.47,6.68-8.26,1.06-1.36,2.61-.7,3.24,.52,3.01,1.5,5.34,3.96,7.7,6.44,1.4,1.46,2.81,3.01,4.5,4.09,1,.63,4.14,2.41,5.13,1.19,.54-.68-.36-2.83-.61-3.47-2.28-6.15-10.62-7.93-11.85-14.64-.1-.57-.03-1.08,.17-1.51-.54-.63-.82-1.55-.45-2.55,2.15-5.85,8.46-9.1,9.85-15.23Z"/><path class="cls-1" d="M456.22,97.2c-6.32-2.29-20.68-12.52-23.59-1.97-.99,3.55,.81,7.77,3.19,10.2,2.39,2.47,8.04,4.44,9.12,8.07,1.22-.75,3.07-.04,3.17,1.56,.66-.5,1.09-1.36,.89-2.42-1.1-5.91-8.19-7.09-11.13-11.42-1.79-2.62-1.73-5.49,1.62-5.88,2.17-.26,4.78,1.2,6.7,2.17,3.38,1.7,6.5,3.6,10.19,4.41,.76,.17,1.39-.09,1.82-.57-1.9,1.38-4.5-1.47-2.7-3.38,.21-.22,.45-.48,.72-.76Z"/><path class="cls-4" d="M457.33,97.53c-.33-.08-.71-.19-1.11-.33-.27,.28-.51,.54-.72,.76-1.8,1.91,.8,4.76,2.7,3.38,.01,0,.01-.02,.03-.02,1.01-1.13,.94-3.4-.89-3.8Z"/><path class="cls-4" d="M467.96,110.56c-.88-1.13-2.74-.61-3.35,.77,.9,1.07,2.56,1.3,3.19-.37,.05-.14,.1-.26,.17-.4Z"/><path class="cls-1" d="M467.96,110.56c-.06,.14-.12,.26-.17,.4-.62,1.68-2.29,1.44-3.19,.37-.21,.43-.27,.94-.17,1.51,1.23,6.71,9.58,8.49,11.85,14.64,.24,.64,1.15,2.79,.61,3.47-.98,1.22-4.13-.56-5.13-1.19-1.69-1.08-3.1-2.63-4.5-4.09-2.37-2.48-4.69-4.94-7.7-6.44,.4,.76,.44,1.73-.22,2.58-.44,.56-.86,1.11-1.3,1.67,5.1,3.45,17.58,19.38,22.42,9.86,1.82-3.58-.34-8.72-2.49-11.54-2.46-3.22-8.81-5.97-9.59-10.27-.08-.4-.22-.73-.42-.97Z"/><path class="cls-4" d="M448.11,115.05c-.09-1.59-1.95-2.3-3.17-1.56,.05,.15,.08,.3,.11,.45,.33,1.78,1.99,1.92,3.05,1.11Z"/><path class="cls-1" d="M445.05,113.94c-.03-.15-.06-.3-.11-.45-.42,.25-.78,.69-.95,1.31-1.55,5.38-6.5,8.6-8.22,13.94-1.17,3.6-1.32,8.83,2.63,10.37,3.67,1.42,7.45-2.03,9.99-4.47,3.52-3.38,6.6-7.28,9.65-11.17-.27-.19-.52-.33-.74-.44-2.44-1.16-.46-5.12,1.97-3.96,.1,.04,.2,.1,.29,.16-.63-1.21-2.18-1.87-3.24-.52-2.19,2.79-4.37,5.6-6.68,8.26-1.98,2.29-4.94,6.51-7.88,7.32-3.8,1.07-2.16-4.21-1.24-5.98,.94-1.76,2.27-3.29,3.45-4.88,1.73-2.33,3.2-4.66,4.04-7.55,.09-.3,.12-.58,.1-.83-1.06,.82-2.72,.67-3.05-1.11Z"/><path class="cls-4" d="M459.27,119.07c-2.44-1.16-4.41,2.8-1.97,3.96,.22,.11,.48,.26,.74,.44,.44-.56,.86-1.11,1.3-1.67,.66-.85,.62-1.83,.22-2.58-.1-.06-.2-.11-.29-.16Z"/></g><g><path class="cls-1" d="M72.75,278.75c-2.59,9.84,19.45,7.26,27.43,6.1-.3-.35-.6-.66-.87-.92-1.53-1.4,.04-3.27,1.87-3.59-.16,0-.32,.02-.49,.04-5.21,.79-10.41,1.11-15.58,.88-3.09-.15-10.19-.41-5.22-3.94,5.82-4.13,14.45-3.04,20.82-6.5,1.08-.58,1.48-1.49,1.4-2.32-1.61,.75-3.84,.08-3.89-1.35-7.31,3.6-23.13,2.69-25.47,11.61Z"/><path class="cls-2" d="M79.89,277.32c-4.97,3.53,2.13,3.79,5.22,3.94,5.18,.23,10.37-.09,15.58-.88,.16-.02,.32-.04,.49-.04,.01,0,.02,0,.04,0,.77-.14,1.58,.02,2.21,.61,3.08,2.82,4.8,6.2,6.92,9.56,1.21,1.91,2.73,4.63,5.08,5.7,3.61,1.66,5.75-.62,5.87-3.79,.23-5.23-5.96-10.36-2.76-15.78,.57-.98,1.62-1.42,2.64-1.43,.16-.22,.39-.42,.7-.61,2.92-1.84,6.07-2.86,9.48-3.72,2.32-.59,4.75-1.04,6.96-1.91,2.2-.89,7.66-4.19,3.11-5.56-3.51-1.07-9.5,.59-13.13,1.28-4.21,.79-8.42,1.78-12.62,2.74-2.04,.47-3.1-.97-2.84-2.33-1.9-2.99-2.43-6.34-2.97-9.74-.33-2-.6-4.09-1.5-5.95-.53-1.1-2.36-4.39-4.22-3.98-1.03,.23-1.69,2.5-1.92,3.16-2.2,6.3,4.79,12.66,1.15,18.8-.31,.52-.75,.89-1.27,1.12,.08,.83-.31,1.74-1.4,2.32-6.37,3.46-14.99,2.37-20.82,6.5Z"/><path class="cls-1" d="M100.18,284.85c4.61,5.57,11.44,22.29,21.98,15.48,3.56-2.29,4.83-6.76,4.23-10.11-.59-3.4-4.76-8.32-3.2-11.89-1.75-.11-3.08-1.78-2.01-3.12-1.02,.02-2.07,.46-2.64,1.43-3.2,5.42,2.99,10.55,2.76,15.78-.12,3.17-2.26,5.45-5.87,3.79-2.35-1.06-3.87-3.79-5.08-5.7-2.12-3.36-3.83-6.74-6.92-9.56-.63-.59-1.44-.75-2.21-.61,2.89,0,3.4,3.84,.23,4.32-.37,.05-.8,.12-1.27,.19Z"/><path class="cls-4" d="M99.31,283.93c.27,.26,.57,.57,.87,.92,.47-.07,.9-.14,1.27-.19,3.17-.48,2.66-4.32-.23-4.32-.01,0-.02,0-.04,0-1.82,.32-3.4,2.19-1.87,3.59Z"/><path class="cls-4" d="M98.22,267.15c.05,1.43,2.27,2.1,3.89,1.35-.12-1.4-1.6-2.56-3.43-1.58-.15,.08-.29,.15-.45,.22Z"/><path class="cls-1" d="M98.22,267.15c.16-.07,.3-.14,.45-.22,1.83-.99,3.31,.18,3.43,1.58,.52-.22,.95-.6,1.27-1.12,3.64-6.14-3.34-12.5-1.15-18.8,.23-.66,.89-2.93,1.92-3.16,1.86-.41,3.69,2.88,4.22,3.98,.9,1.86,1.17,3.95,1.5,5.95,.55,3.4,1.07,6.75,2.97,9.74,.15-.84,.82-1.66,2.09-1.95,.84-.19,1.66-.39,2.5-.58-2.56-5.79-3.4-26.01-15.09-21.17-4.4,1.82-5.98,7.25-5.9,10.79,.11,4.05,4.41,10.01,2.07,13.94-.21,.37-.32,.72-.29,1.03Z"/><path class="cls-4" d="M121.18,275.21c-1.06,1.34,.26,3.01,2.01,3.12,.06-.15,.14-.29,.22-.43,.96-1.63-.58-2.73-2.23-2.69Z"/><path class="cls-1" d="M123.4,277.9c-.08,.14-.15,.28-.22,.43,.6,.04,1.27-.1,1.89-.5,5.44-3.43,12.69-3.12,18.27-6.42,3.77-2.22,7.72-6.36,4.91-9.92-2.61-3.31-8.86-2.75-13.16-2.28-5.94,.66-11.83,2-17.67,3.34,.13,.31,.28,.57,.42,.8,1.58,2.37-3.25,4.41-4.83,2.04-.07-.09-.12-.2-.18-.3-.25,1.35,.81,2.8,2.84,2.33,4.2-.97,8.4-1.95,12.62-2.74,3.63-.68,9.62-2.35,13.13-1.28,4.54,1.37-.91,4.67-3.11,5.56-2.21,.87-4.64,1.32-6.96,1.91-3.41,.86-6.56,1.88-9.48,3.72-.31,.19-.54,.39-.7,.61,1.65-.03,3.19,1.06,2.23,2.69Z"/><path class="cls-4" d="M113.02,265.39c1.58,2.37,6.41,.33,4.83-2.04-.14-.22-.29-.49-.42-.8-.84,.19-1.66,.39-2.5,.58-1.27,.3-1.94,1.11-2.09,1.95,.06,.1,.11,.21,.18,.3Z"/></g><path class="cls-1" d="M88.53,180.79c1.93,0,1.93-3,0-3s-1.93,3,0,3h0Z"/><path class="cls-1" d="M97,162.44c1.93,0,1.93-3,0-3s-1.93,3,0,3h0Z"/><path class="cls-1" d="M99.82,141.26c1.93,0,1.93-3,0-3s-1.93,3,0,3h0Z"/><path class="cls-1" d="M104.06,117.26c1.93,0,1.93-3,0-3s-1.93,3,0,3h0Z"/><path class="cls-1" d="M109.71,101.74c1.93,0,1.93-3,0-3s-1.93,3,0,3h0Z"/><path class="cls-1" d="M116.76,84.79c1.93,0,1.93-3,0-3s-1.93,3,0,3h0Z"/><path class="cls-1" d="M128.06,70.68c1.93,0,1.93-3,0-3s-1.93,3,0,3h0Z"/><path class="cls-1" d="M142.18,60.79c1.93,0,1.93-3,0-3s-1.93,3,0,3h0Z"/><path class="cls-1" d="M166.18,55.15c1.93,0,1.93-3,0-3s-1.93,3,0,3h0Z"/><path class="cls-1" d="M193,56.56c1.93,0,1.93-3,0-3s-1.93,3,0,3h0Z"/><path class="cls-1" d="M212.76,59.38c1.93,0,1.93-3,0-3s-1.93,3,0,3h0Z"/><path class="cls-1" d="M235.35,60.79c1.93,0,1.93-3,0-3s-1.93,3,0,3h0Z"/><path class="cls-1" d="M94.18,192.09c1.93,0,1.93-3,0-3s-1.93,3,0,3h0Z"/><path class="cls-1" d="M98.41,210.44c1.93,0,1.93-3,0-3s-1.93,3,0,3h0Z"/><path class="cls-1" d="M105.47,230.21c1.93,0,1.93-3,0-3s-1.93,3,0,3h0Z"/><path class="cls-1" d="M135.12,281.03c1.93,0,1.93-3,0-3s-1.93,3,0,3h0Z"/><path class="cls-1" d="M149.24,289.5c1.93,0,1.93-3,0-3s-1.93,3,0,3h0Z"/><path class="cls-1" d="M174.65,293.74c1.93,0,1.93-3,0-3s-1.93,3,0,3h0Z"/><path class="cls-1" d="M193,296.56c1.93,0,1.93-3,0-3s-1.93,3,0,3h0Z"/></svg>