<?xml version="1.0" encoding="UTF-8"?><svg id="Layer_1" xmlns="http://www.w3.org/2000/svg" viewBox="0 0 486 464"><defs><style>.cls-1{fill:#6e3470;}.cls-2{fill:#ced362;}.cls-3{fill:#5b534d;}</style></defs><path class="cls-1" d="M432.91,224.1c9.62,51.57-92.46,59.65-130.59,61.81,1.25-2.7,2.5-5.07,3.77-7.08,7.03-11.09-5.54-20.58-15.69-17.68,1.36-.69,2.92-1.05,4.75-1.16,25.11-1.27,49.78-4.62,74.04-11.43,7.66-2.05,24.93-4.42,30.34-10.54,13.51-15.25-3.71-20.43-14.78-23.95-32.39-10.45-67.17,.78-99.69-11.67-5.65-2.19-7.75-6.52-7.32-11.01,1.16,.54,2.41,.89,3.64,.98h.27c6.61,2.21,15.38-.25,18.28-8.73,.38-1.09,.74-2.17,1.12-3.24,27.12,8.5,56.92,.29,84.51,6.5,18.73,4.29,43.35,16.25,47.35,37.19Z"/><path class="cls-2" d="M384.76,214.08c11.07,3.53,28.28,8.71,14.78,23.95-5.4,6.12-22.68,8.48-30.34,10.54-24.26,6.81-48.93,10.16-74.04,11.43-1.83,.11-3.39,.47-4.75,1.16h-.09c-2.92,.8-5.6,2.63-7.61,5.8-11.81,18.75-17.39,39.15-24.06,60.03-4.29,13.22-9.31,31.12-19.35,41.45-4.22,4.29-8.35,6.63-12.23,7.48-3.37-3.28-8.53-4.64-12.92-3.66-4-3.71-6.96-9.55-8.3-17.01-5.85-31.41,19.78-69.04-.92-98.15-3.73-5.18-9.22-6.34-14.04-4.91-1.03-1.16-2.41-2.12-4.11-2.9-15.58-7.19-31.14-9.55-48.11-10.89-11.61-.87-94.07-9.58-53.91-34.15,15.18-9.33,46.19-6.07,63.35-6.16,21.43,0,42.77,.98,64.18,2.03,10.11,.54,13.55-8.86,10.89-16.59,7.39-22.26,6.38-44.6,6.36-67.79,0-13.13-.98-30.31,6.09-42.03,5.96-9.89,16.47-11.41,23.97-3.3,4.31,4.64,6.61,16.5,7.21,22.14,3.42,30.18-13.84,67.1,5.31,94.29,1.63,2.28,3.55,3.73,5.63,4.58-.42,4.49,1.67,8.82,7.32,11.01,32.52,12.46,67.3,1.23,99.69,11.67Z"/><path class="cls-1" d="M290.4,261.15c10.16-2.9,22.72,6.59,15.69,17.68-1.27,2.01-2.52,4.38-3.77,7.08-2.1,.02-3.93,.13-5.58,.25-15,.74-17.93-19.91-6.43-25h.09Z"/><path class="cls-3" d="M301.05,180.41c-.38,1.07-.74,2.14-1.12,3.24-2.9,8.48-11.67,10.94-18.28,8.73,7.46,.4,15.13-5.92,14.67-13.51,.18-.02,.36,.07,.54,.13,1.34,.54,2.77,1.07,4.2,1.41Z"/><path class="cls-1" d="M296.74,286.16c1.65-.11,3.48-.22,5.58-.25-16.01,34.31-30.67,118.27-74,120.92,.92-6.45,1.83-12.9,2.75-19.33,.76-4.96-.98-8.88-4.02-11.59,3.88-.85,8.01-3.19,12.23-7.48,10.05-10.34,15.07-28.24,19.35-41.45,6.67-20.87,12.26-41.27,24.06-60.03,2.01-3.17,4.69-5,7.61-5.8-11.5,5.09-8.57,25.74,6.43,25Z"/><path class="cls-1" d="M296.31,178.87c.47,7.59-7.21,13.91-14.67,13.51h-.27c-1.34-.42-2.5-1.07-3.62-1.96,1.21-7.5,9.15-14.82,18.55-11.54Z"/><path class="cls-1" d="M293.9,172.2c1.61,2.25,2.37,4.49,2.41,6.67-9.4-3.28-17.34,4.04-18.55,11.54-3.48-2.41-5.31-6.67-3.46-12.21,4.24-12.34,8.75-24.51,13.62-36.45-.69,11.59,.31,22.39,5.98,30.45Z"/><path class="cls-1" d="M292.96,90.94c1.21,14.11-3.84,33.31-5.04,50.81-4.87,11.94-9.38,24.11-13.62,36.45-1.85,5.54-.02,9.8,3.46,12.21-.07,.36-.04,.71-.02,.98-2.08-.85-4-2.3-5.63-4.58-19.15-27.19-1.9-64.11-5.31-94.29-.6-5.65-2.9-17.5-7.21-22.14-7.5-8.1-18.01-6.59-23.97,3.3-7.08,11.72-6.09,28.91-6.09,42.03,.02,23.19,1.03,45.54-6.36,67.79-1.61-4.98-5.89-9.26-12.48-9.58-4.04-.18-7.99-.38-12.03-.58,6.5-37.06-3.68-163.36,58.75-141.35,21.92,7.77,33.73,37.77,35.56,58.93Z"/><path class="cls-3" d="M281.38,192.38c-1.23-.09-2.48-.45-3.64-.98-.02-.27-.04-.63,.02-.98,1.12,.89,2.28,1.54,3.62,1.96Z"/><path class="cls-1" d="M227.05,375.91c3.04,2.7,4.78,6.63,4.02,11.59-.92,6.43-1.83,12.88-2.75,19.33-4.89,.29-10.02-.45-15.65-2.37-3.57-1.18-6.83-2.92-9.75-5.02,.87-5.83,1.65-11.65,2.52-17.39s4.44-8.84,8.68-9.8c3.62,3.28,8.08,4.75,12.92,3.66Z"/><path class="cls-3" d="M227.05,375.91c-4.84,1.09-9.31-.38-12.92-3.66,4.4-.98,9.55,.38,12.92,3.66Z"/><path class="cls-1" d="M223.16,183.52c2.66,7.72-.78,17.12-10.89,16.59-21.41-1.05-42.75-2.03-64.18-2.03-17.17,.09-48.17-3.17-63.35,6.16-40.16,24.58,42.3,33.28,53.91,34.15,16.97,1.34,32.52,3.71,48.11,10.89,1.7,.78,3.08,1.74,4.11,2.9-7.75,2.23-13.77,11.01-7.75,19.55,.4,.49,.78,1.09,1.07,1.67-2.83,.98-5.98,.89-9.31-.65-26.5-12.3-155.1-5.85-128.15-70.34,9.17-21.99,38.13-26.3,59.09-28.64,30.67-3.53,61.95-1.94,92.84-.42-.4,2.23-.89,4.17-1.41,5.69-5.51,15.92,20.2,21.18,25.63,5.45,.16-.36,.22-.63,.29-.98Z"/><path class="cls-1" d="M223.16,183.52c-.07,.36-.13,.63-.29,.98-5.42,15.74-31.14,10.47-25.63-5.45,.51-1.52,1-3.46,1.41-5.69,4.04,.2,7.99,.4,12.03,.58,6.59,.31,10.87,4.6,12.48,9.58Z"/><path class="cls-1" d="M205.82,355.24c1.34,7.46,4.31,13.3,8.3,17.01-4.24,.96-7.81,4.06-8.68,9.8s-1.65,11.56-2.52,17.39c-15.8-11.03-24-33.1-24.33-51.45-.38-20.65,16.65-55.81,5.6-74.58,8.5-2.61,13.13-14.44,6.67-21.23,4.82-1.43,10.31-.27,14.04,4.91,20.69,29.11-4.93,66.74,.92,98.15Z"/><path class="cls-1" d="M190.86,252.18c6.45,6.79,1.83,18.62-6.67,21.23-.29-.58-.67-1.18-1.07-1.67-6.03-8.55,0-17.32,7.75-19.55Z"/></svg>