<?xml version="1.0" encoding="UTF-8"?><svg id="Layer_1" xmlns="http://www.w3.org/2000/svg" viewBox="0 0 486 464"><defs><style>.cls-1{fill:#6e3470;}.cls-2{fill:#ced362;}.cls-3{fill:#5b534d;}</style></defs><g><path class="cls-1" d="M357.56,287.71c17.37,9.21,66.76,20.54,52.2,46.72-4.89,8.83-16.79,12.95-26.42,12.46-9.68-.47-25.08-8.77-34.38-4.27-1.05-4.01-6.23-6.64-9.52-3.83-.37-2.36,.39-4.92,2.86-6.5,13.79-8.79,30.62,4.15,45.05,2.26,8.79-1.17,14.26-6.68,8.15-14.59-3.97-5.16-12.15-7.95-17.96-10.22-10.26-4.04-20.37-7.05-29.47-13.46-1.9-1.31-2.67-3.14-2.62-4.96,1.17,6.65,12.09,6.85,12.11-.61-.01-.87,.01-1.89-.01-3.02Z"/><path class="cls-2" d="M395.51,319.96c6.1,7.91,.63,13.41-8.15,14.59-14.43,1.89-31.26-11.05-45.05-2.26-2.48,1.58-3.24,4.15-2.86,6.5-.54,.44-1.01,1.02-1.42,1.78-3.94,7.27-5.44,14.79-6.46,22.92-.65,5.48-.9,11.23-2.44,16.58-1.53,5.29-8.44,18.76-14.17,8.65-4.41-7.84-2.29-22.16-1.9-30.66,.47-10,1.49-19.96,2.44-29.9,.47-4.83-3.99-6.9-7.64-5.95-9.1-3.61-18.65-3.94-28.34-4.3-5.7-.23-11.65-.29-17.18-1.9-3.28-.94-13.19-4.28-12.84-8.69,.21-2.45,6.24-4.6,7.97-5.3,16.67-6.71,37.24,7.74,52.79-2.26,1.35-.9,2.18-2.04,2.59-3.28,2.37,0,4.71-1.18,5.91-3.82,6.96-15.6,.36-35.23,9.46-49.8,7.75-12.42,11.42,3.91,13.13,11.02,2.78,11.9,4.01,24.01,4.01,36.24,.01,.37,.03,.74,.08,1.13,.03,.03,0,.06,.03,.08-.06,1.82,.72,3.65,2.62,4.96,9.1,6.4,19.21,9.42,29.47,13.46,5.81,2.27,13.99,5.05,17.96,10.22Z"/><path class="cls-1" d="M357.56,287.71c.03,1.13,0,2.15,.01,3.02-.01,7.45-10.94,7.26-12.11,.61-.03-.03,0-.06-.03-.08,.11-4.34,4.67-8.47,9.2-5.3,.81,.59,1.82,1.17,2.92,1.76Z"/><path class="cls-1" d="M357.56,287.71c-1.1-.59-2.11-1.17-2.92-1.76-4.53-3.17-9.09,.96-9.2,5.3-.06-.39-.07-.76-.08-1.13,0-12.23-1.23-24.34-4.01-36.24-1.71-7.11-5.37-23.44-13.13-11.02-9.1,14.57-2.51,34.2-9.46,49.8-1.2,2.63-3.54,3.82-5.91,3.82,1.38-3.95-1.38-8.83-5.32-8.62,6.89-17.81-2.15-54.11,21.71-61.88,26.22-8.61,28.21,42.94,28.32,61.73Z"/><path class="cls-1" d="M348.96,342.62c.37,1.38,.26,2.96-.59,4.5-7.33,13.51-3.44,30.15-10.33,43.94-4.63,9.24-14.46,19.48-25.55,13.92-10.29-5.16-11.32-19.75-11.8-29.83-.65-13.9,.63-27.88,2.04-41.7,.88,.25,1.65,.48,2.33,.76,7.27,3.04,10.95-8.65,3.7-11.67-.29-.14-.61-.23-.91-.33,3.65-.95,8.11,1.12,7.64,5.95-.95,9.94-1.97,19.9-2.44,29.9-.39,8.5-2.51,22.82,1.9,30.66,5.73,10.11,12.64-3.36,14.17-8.65,1.54-5.36,1.79-11.1,2.44-16.58,1.02-8.13,2.52-15.65,6.46-22.92,.41-.76,.88-1.34,1.42-1.78,.59,3.87,4.27,7.09,8.39,4.46,.39-.23,.74-.45,1.13-.63Z"/><path class="cls-1" d="M348.96,342.62c-.39,.18-.74,.4-1.13,.63-4.12,2.63-7.8-.59-8.39-4.46,3.29-2.81,8.47-.18,9.52,3.83Z"/><path class="cls-1" d="M307.53,287.86c3.94-.21,6.69,4.67,5.32,8.62-3.91,.18-7.8-2.96-5.78-7.49,.17-.36,.33-.73,.47-1.13Z"/><path class="cls-1" d="M307.06,288.99c-2.01,4.53,1.87,7.67,5.78,7.49-.41,1.24-1.24,2.38-2.59,3.28-15.55,10-36.13-4.45-52.79,2.26-1.74,.7-7.77,2.85-7.97,5.3-.36,4.41,9.56,7.75,12.84,8.69,5.52,1.61,11.47,1.67,17.18,1.9,9.7,.36,19.24,.69,28.34,4.3-2.29,.58-4.28,2.33-4.57,5.34-.22,1.96-.37,3.91-.58,5.87-17.24-4.32-73.78-.91-65.16-29.21,3.25-10.65,17.68-15.73,27.55-16.46,11.31-.83,29.68,7.48,39.68,1.07,.92-.62,1.86-.92,2.77-.96-.14,.4-.3,.77-.47,1.13Z"/><path class="cls-1" d="M308.76,322.54c7.24,3.02,3.57,14.71-3.7,11.67-.67-.28-1.45-.51-2.33-.76-.06,0-.03-.03-.03-.03,.21-1.96,.36-3.91,.58-5.87,.29-3.02,2.29-4.77,4.57-5.34,.3,.1,.62,.19,.91,.33Z"/></g><g><path class="cls-1" d="M185.28,340.76c13.65,5.33,51.14,9.59,42.55,30.16-2.88,6.94-11.35,10.99-18.48,11.42-7.23,.48-19.35-4.38-25.82-.25-1.1-2.88-5.16-4.39-7.37-2.02-.47-1.72-.1-3.66,1.6-5.04,9.45-7.69,22.99,.48,33.52-2.15,6.4-1.57,9.97-6.13,4.79-11.46-3.35-3.47-9.65-4.86-14.14-6.06-7.92-2.11-15.65-3.53-22.95-7.48-1.52-.81-2.25-2.09-2.34-3.44,1.45,4.83,9.52,4.04,8.9-1.47-.08-.65-.15-1.39-.25-2.2Z"/><path class="cls-2" d="M216.06,361.42c5.18,5.33,1.61,9.89-4.79,11.46-10.54,2.63-24.08-5.54-33.52,2.15-1.69,1.38-2.07,3.32-1.6,5.04-.36,.36-.65,.83-.9,1.43-2.29,5.67-2.78,11.39-2.84,17.46-.03,4.15,.26,8.42-.41,12.48-.7,4.08-4.68,14.63-9.77,7.6-3.94-5.41-3.54-16.17-3.97-22.53-.5-7.4-.61-14.87-.73-22.31-.06-3.61-3.54-4.77-6.17-3.76-7.02-1.9-14.12-1.35-21.32-.8-4.24,.3-8.64,.74-12.88,.04-2.51-.43-10.12-2.08-10.22-5.36-.06-1.83,4.24-3.91,5.48-4.57,11.73-6.39,28.18,2.58,38.87-6.16,.9-.74,1.45-1.64,1.64-2.6,1.74-.22,3.39-1.27,4.04-3.33,3.86-12.15-2.67-26.13,2.81-37.66,4.7-9.83,8.79,1.94,10.65,7.07,3.06,8.57,5,17.4,6.01,26.47,.04,.28,.08,.55,.17,.83,.01,.01,0,.04,.03,.07,.1,1.35,.83,2.63,2.34,3.44,7.3,3.95,15.03,5.37,22.95,7.48,4.49,1.2,10.8,2.59,14.14,6.06Z"/><path class="cls-1" d="M185.53,342.97c.62,5.51-7.45,6.31-8.9,1.47-.03-.03-.01-.06-.03-.07-.28-3.2,2.77-6.64,6.38-4.67,.66,.34,1.45,.7,2.3,1.06,.1,.81,.17,1.56,.25,2.2Z"/><path class="cls-1" d="M183.52,382.09c.39,.99,.44,2.16-.07,3.39-4.26,10.58,0,22.59-3.93,33.34-2.64,7.27-9.09,15.66-17.75,12.48-8.04-2.95-10.04-13.66-11.23-21.06-1.64-10.23-1.85-20.66-2.04-31.03,.7,.08,1.31,.22,1.83,.36,5.62,1.63,7.35-7.34,1.74-8.97-.22-.07-.45-.12-.7-.17,2.63-1.01,6.12,.15,6.17,3.76,.12,7.44,.23,14.92,.73,22.31,.43,6.36,.03,17.12,3.97,22.53,5.08,7.02,9.06-3.53,9.77-7.6,.67-4.06,.39-8.33,.41-12.48,.06-6.07,.55-11.79,2.84-17.46,.25-.61,.54-1.07,.9-1.43,.76,2.77,3.76,4.88,6.61,2.56,.25-.18,.5-.37,.76-.54Z"/><path class="cls-1" d="M185.28,340.76c-.85-.36-1.64-.72-2.3-1.06-3.61-1.97-6.65,1.47-6.38,4.67-.08-.28-.12-.55-.17-.83-1.01-9.08-2.95-17.9-6.01-26.47-1.86-5.12-5.95-16.9-10.65-7.07-5.48,11.53,1.05,25.51-2.81,37.66-.65,2.07-2.3,3.11-4.04,3.33,.72-3.02-1.76-6.45-4.71-5.92,3.68-13.77-6.1-39.89,10.89-47.64,18.75-8.55,24.53,29.46,26.16,43.33Z"/><path class="cls-1" d="M183.52,382.09c-.26,.17-.51,.36-.76,.54-2.85,2.31-5.85,.21-6.61-2.56,2.2-2.37,6.27-.85,7.37,2.02Z"/><path class="cls-1" d="M148.23,345.07c2.95-.52,5.43,2.91,4.71,5.92-2.91,.4-6.02-1.57-4.93-5.07,.1-.29,.17-.55,.22-.85Z"/><path class="cls-1" d="M148.01,345.93c-1.09,3.5,2.02,5.47,4.93,5.07-.19,.96-.74,1.86-1.64,2.6-10.69,8.73-27.13-.23-38.87,6.16-1.24,.66-5.54,2.74-5.48,4.57,.1,3.28,7.71,4.93,10.22,5.36,4.24,.7,8.64,.26,12.88-.04,7.2-.55,14.3-1.1,21.32,.8-1.64,.62-2.96,2.08-2.92,4.34,.03,1.49,.03,2.95,.06,4.43-13.07-1.8-54.68,5.47-50.67-16.18,1.52-8.15,11.78-13.14,19.02-14.52,8.31-1.57,22.6,3.09,29.43-2.52,.66-.52,1.31-.84,1.94-.92-.06,.3-.12,.56-.22,.85Z"/><path class="cls-1" d="M152.07,370.61c5.62,1.63,3.88,10.59-1.74,8.97-.52-.14-1.13-.28-1.83-.36-.03-1.49-.03-2.95-.06-4.43-.04-2.26,1.28-3.72,2.92-4.34,.25,.04,.48,.1,.7,.17Z"/></g><g><path class="cls-1" d="M314.86,152.32c5.94,31.82-57.05,36.8-80.57,38.14,.76-1.67,1.54-3.13,2.33-4.37,4.34-6.85-3.43-12.7-9.68-10.91,.84-.43,1.79-.65,2.92-.72,15.51-.79,30.71-2.85,45.69-7.05,4.74-1.27,15.4-2.73,18.73-6.5,8.33-9.41-2.29-12.6-9.12-14.78-20-6.45-41.44,.48-61.51-7.2-3.48-1.35-4.79-4.02-4.53-6.79,.73,.33,1.5,.55,2.26,.61h.17c4.08,1.36,9.49-.15,11.28-5.39,.22-.67,.45-1.34,.69-2,16.73,5.25,35.11,.18,52.14,4.01,11.56,2.64,26.75,10.03,29.21,22.95Z"/><path class="cls-2" d="M285.15,146.13c6.83,2.18,17.45,5.37,9.12,14.78-3.33,3.77-13.99,5.23-18.73,6.5-14.97,4.2-30.18,6.27-45.69,7.05-1.13,.07-2.08,.29-2.92,.72h-.06c-1.8,.5-3.47,1.63-4.7,3.58-7.29,11.57-10.73,24.16-14.86,37.04-2.63,8.15-5.74,19.2-11.94,25.58-2.59,2.64-5.15,4.09-7.55,4.61-2.07-2.02-5.25-2.86-7.96-2.26-2.47-2.29-4.31-5.89-5.12-10.5-3.62-19.38,12.19-42.6-.56-60.56-2.31-3.2-5.7-3.91-8.66-3.03-.65-.72-1.49-1.31-2.55-1.79-9.61-4.43-19.2-5.89-29.68-6.72-7.16-.54-58.04-5.91-33.25-21.07,9.37-5.76,28.5-3.75,39.07-3.8,13.24,0,26.39,.61,39.61,1.25,6.23,.33,8.36-5.47,6.72-10.23,4.56-13.73,3.94-27.52,3.93-41.83-.01-8.1-.61-18.7,3.76-25.93,3.68-6.1,10.15-7.04,14.78-2.04,2.66,2.86,4.08,10.18,4.45,13.66,2.12,18.62-8.54,41.4,3.29,58.18,1.01,1.4,2.19,2.3,3.46,2.82-.26,2.77,1.05,5.44,4.53,6.79,20.07,7.69,41.51,.76,61.51,7.2Z"/><path class="cls-1" d="M226.93,175.18c6.25-1.79,14.02,4.06,9.68,10.91-.79,1.24-1.57,2.7-2.33,4.37-1.29,.01-2.42,.08-3.44,.15-9.27,.45-11.07-12.29-3.97-15.43h.06Z"/><path class="cls-3" d="M233.5,125.36c-.23,.66-.47,1.32-.69,2-1.79,5.23-7.2,6.75-11.28,5.39,4.6,.25,9.32-3.65,9.05-8.33,.11-.01,.22,.04,.33,.08,.83,.33,1.71,.66,2.59,.87Z"/><path class="cls-1" d="M230.84,190.61c1.02-.07,2.15-.14,3.44-.15-9.89,21.17-18.92,72.97-45.67,74.61,.58-3.98,1.14-7.96,1.71-11.93,.45-3.06-.61-5.48-2.49-7.15,2.4-.52,4.96-1.97,7.55-4.61,6.2-6.38,9.31-17.42,11.94-25.58,4.13-12.88,7.58-25.47,14.86-37.04,1.23-1.96,2.89-3.09,4.7-3.58-7.11,3.14-5.3,15.88,3.97,15.43Z"/><path class="cls-1" d="M230.58,124.41c.28,4.68-4.45,8.58-9.05,8.33h-.17c-.83-.26-1.56-.66-2.23-1.21,.74-4.63,5.65-9.15,11.45-7.12Z"/><path class="cls-1" d="M229.08,120.3c1.01,1.39,1.47,2.77,1.5,4.12-5.8-2.02-10.7,2.49-11.45,7.12-2.15-1.49-3.28-4.12-2.13-7.53,2.6-7.62,5.39-15.12,8.4-22.49-.43,7.15,.19,13.81,3.68,18.79Z"/><path class="cls-1" d="M228.5,70.16c.76,8.7-2.36,20.55-3.1,31.35-3.02,7.37-5.8,14.87-8.4,22.49-1.14,3.42-.01,6.05,2.13,7.53-.04,.22-.03,.44-.03,.61-1.27-.52-2.45-1.42-3.46-2.82-11.83-16.78-1.17-39.56-3.29-58.18-.37-3.48-1.79-10.8-4.45-13.66-4.63-5-11.1-4.06-14.78,2.04-4.37,7.23-3.77,17.84-3.76,25.93,.01,14.31,.63,28.1-3.93,41.83-1.01-3.07-3.65-5.72-7.71-5.91-2.49-.11-4.93-.23-7.41-.36,3.99-22.86-2.27-100.79,36.25-87.21,13.53,4.79,20.81,23.3,21.93,36.36Z"/><path class="cls-3" d="M219.14,131.54c.67,.55,1.4,.95,2.23,1.21-.76-.06-1.53-.28-2.26-.61,0-.17-.01-.39,.03-.61Z"/><path class="cls-1" d="M187.83,245.99c1.89,1.67,2.95,4.09,2.49,7.15-.56,3.97-1.13,7.95-1.71,11.93-3,.18-6.17-.28-9.64-1.46-2.2-.73-4.21-1.8-6.02-3.1,.54-3.59,1.02-7.19,1.56-10.73s2.74-5.45,5.36-6.05c2.23,2.02,4.99,2.93,7.96,2.26Z"/><path class="cls-3" d="M187.83,245.99c-2.97,.67-5.73-.23-7.96-2.26,2.71-.61,5.89,.23,7.96,2.26Z"/><path class="cls-1" d="M185.45,127.28c1.64,4.77-.5,10.56-6.72,10.23-13.22-.65-26.38-1.25-39.61-1.25-10.58,.06-29.71-1.96-39.07,3.8-24.79,15.16,26.09,20.54,33.25,21.07,10.48,.83,20.07,2.29,29.68,6.72,1.06,.48,1.9,1.07,2.55,1.79-4.78,1.38-8.5,6.79-4.78,12.07,.23,.3,.47,.67,.66,1.03-1.75,.61-3.69,.55-5.76-.4-16.33-7.59-95.7-3.61-79.06-43.4,5.65-13.57,23.52-16.22,36.46-17.67,18.92-2.18,38.21-1.2,57.28-.26-.25,1.38-.55,2.58-.87,3.51-3.4,9.82,12.46,13.07,15.81,3.36,.1-.22,.14-.39,.18-.61Z"/><path class="cls-1" d="M185.45,127.28c-.04,.22-.08,.39-.18,.61-3.35,9.71-19.21,6.46-15.81-3.36,.32-.94,.62-2.13,.87-3.51,2.48,.12,4.92,.25,7.41,.36,4.06,.19,6.71,2.84,7.71,5.91Z"/><path class="cls-1" d="M174.75,233.24c.81,4.6,2.66,8.21,5.12,10.5-2.62,.59-4.82,2.51-5.36,6.05s-1.02,7.13-1.56,10.73c-9.77-6.8-14.81-20.43-15.01-31.75-.23-12.74,10.26-34.43,3.46-46.02,5.25-1.61,8.1-8.91,4.12-13.1,2.96-.88,6.35-.17,8.66,3.03,12.75,17.96-3.06,41.18,.56,60.56Z"/><path class="cls-1" d="M165.52,169.65c3.98,4.19,1.13,11.49-4.12,13.1-.19-.36-.43-.73-.66-1.03-3.72-5.28,0-10.69,4.78-12.07Z"/></g></svg>